<svg xmlns="http://www.w3.org/2000/svg" viewBox="0 0 720 520" role="img" aria-hidden="true">

  <defs>
    <linearGradient id="black" x1="0" y1="0" x2="1" y2="1">
      <stop offset="0" stop-color="#272b30"/>
      <stop offset=".48" stop-color="#090b0e"/>
      <stop offset="1" stop-color="#010203"/>
    </linearGradient>
    <linearGradient id="lime" x1="0" y1="0" x2="1" y2="1">
      <stop offset="0" stop-color="#f0ff62"/>
      <stop offset="1" stop-color="#bfff00"/>
    </linearGradient>
    <linearGradient id="gold" x1="0" y1="0" x2="1" y2="1">
      <stop offset="0" stop-color="#ffd978"/>
      <stop offset="1" stop-color="#a66d16"/>
    </linearGradient>
    <linearGradient id="silver" x1="0" y1="0" x2="1" y2="1">
      <stop offset="0" stop-color="#f2f4f0"/>
      <stop offset=".55" stop-color="#aeb5b0"/>
      <stop offset="1" stop-color="#5d6460"/>
    </linearGradient>
    <filter id="shadow" x="-30%" y="-40%" width="160%" height="190%">
      <feDropShadow dx="0" dy="24" stdDeviation="18" flood-color="#000" flood-opacity=".62"/>
      <feDropShadow dx="0" dy="0" stdDeviation="7" flood-color="#cfff20" flood-opacity=".13"/>
    </filter>
    <filter id="soft" x="-20%" y="-20%" width="140%" height="140%">
      <feGaussianBlur stdDeviation="1.2"/>
    </filter>
  </defs>

  <g filter="url(#shadow)">
    <path d="M200 170c85-62 205-7 205 96s-120 158-205 96c-66-48-66-144 0-192Z" fill="url(#black)" stroke="#4f5759" stroke-width="7"/>
    <path d="M282 221c45-23 93 9 93 45s-48 68-93 45c-39-20-39-70 0-90Z" fill="#07090a"/>
    <path d="M392 171c85-62 205-7 205 96s-120 158-205 96c-66-48-66-144 0-192Z" fill="url(#black)" stroke="#4f5759" stroke-width="7"/>
    <path d="M474 222c45-23 93 9 93 45s-48 68-93 45c-39-20-39-70 0-90Z" fill="#07090a"/>
    <path d="M171 251h214M363 251h214" stroke="url(#lime)" stroke-width="12" opacity=".85"/>
  </g>
</svg>
